<svg xmlns="http://www.w3.org/2000/svg" width="1000" height="1250" viewBox="0 0 1000 1250"><defs><linearGradient id="s" x1="0" y1="0" x2="0" y2="1"><stop offset="0" stop-color="#06143a"/><stop offset="0.55" stop-color="#0f5a78"/><stop offset="1" stop-color="#7fe0d8"/></linearGradient><radialGradient id="g"><stop offset="0" stop-color="#b8f0ff" stop-opacity="1"/><stop offset="1" stop-color="#b8f0ff" stop-opacity="0"/></radialGradient><radialGradient id="hg"><stop offset="0" stop-color="#ffcf5a" stop-opacity=".8"/><stop offset="1" stop-color="#ffcf5a" stop-opacity="0"/></radialGradient><radialGradient id="fg"><stop offset="0" stop-color="#ffb84a" stop-opacity=".85"/><stop offset="1" stop-color="#ffb84a" stop-opacity="0"/></radialGradient></defs><rect width="1000" height="1250" fill="url(#s)"/><circle cx="720" cy="330" r="340" fill="url(#g)" opacity=".8"/><circle cx="720" cy="330" r="95" fill="#f4ffff"/><circle cx="947" cy="296" r="2.2" fill="#fff" opacity="0.35"/><circle cx="606" cy="314" r="1.5" fill="#fff" opacity="0.62"/><circle cx="133" cy="196" r="1.2" fill="#fff" opacity="0.31"/><circle cx="635" cy="465" r="2.2" fill="#fff" opacity="0.36"/><circle cx="727" cy="510" r="1.5" fill="#fff" opacity="0.61"/><circle cx="751" cy="441" r="1.4" fill="#fff" opacity="0.33"/><circle cx="801" cy="36" r="1.7" fill="#fff" opacity="0.69"/><circle cx="635" cy="221" r="2.4" fill="#fff" opacity="0.52"/><circle cx="778" cy="377" r="2.3" fill="#fff" opacity="0.47"/><circle cx="998" cy="321" r="1.7" fill="#fff" opacity="0.79"/><circle cx="181" cy="494" r="1.7" fill="#fff" opacity="0.57"/><circle cx="657" cy="167" r="1.1" fill="#fff" opacity="0.41"/><circle cx="331" cy="532" r="1.1" fill="#fff" opacity="0.37"/><circle cx="100" cy="436" r="0.9" fill="#fff" opacity="0.47"/><circle cx="586" cy="287" r="2.1" fill="#fff" opacity="0.50"/><circle cx="378" cy="295" r="1.7" fill="#fff" opacity="0.84"/><circle cx="465" cy="562" r="1.1" fill="#fff" opacity="0.39"/><circle cx="634" cy="122" r="1.9" fill="#fff" opacity="0.80"/><circle cx="243" cy="336" r="1.7" fill="#fff" opacity="0.85"/><circle cx="606" cy="102" r="2.3" fill="#fff" opacity="0.40"/><circle cx="998" cy="34" r="0.9" fill="#fff" opacity="0.55"/><circle cx="23" cy="166" r="2.1" fill="#fff" opacity="0.71"/><circle cx="997" cy="227" r="2.1" fill="#fff" opacity="0.87"/><circle cx="551" cy="455" r="2.0" fill="#fff" opacity="0.51"/><circle cx="997" cy="386" r="1.6" fill="#fff" opacity="0.32"/><circle cx="270" cy="477" r="1.7" fill="#fff" opacity="0.75"/><circle cx="470" cy="302" r="1.1" fill="#fff" opacity="0.36"/><circle cx="541" cy="173" r="1.9" fill="#fff" opacity="0.63"/><circle cx="244" cy="259" r="1.0" fill="#fff" opacity="0.40"/><circle cx="12" cy="455" r="2.0" fill="#fff" opacity="0.69"/><circle cx="424" cy="169" r="2.2" fill="#fff" opacity="0.71"/><circle cx="422" cy="71" r="1.9" fill="#fff" opacity="0.80"/><circle cx="654" cy="244" r="1.7" fill="#fff" opacity="0.56"/><circle cx="306" cy="570" r="1.8" fill="#fff" opacity="0.33"/><circle cx="291" cy="111" r="0.8" fill="#fff" opacity="0.38"/><circle cx="988" cy="572" r="2.0" fill="#fff" opacity="0.56"/><circle cx="169" cy="80" r="1.3" fill="#fff" opacity="0.71"/><circle cx="116" cy="240" r="2.2" fill="#fff" opacity="0.87"/><circle cx="818" cy="460" r="2.4" fill="#fff" opacity="0.46"/><circle cx="346" cy="386" r="0.8" fill="#fff" opacity="0.87"/><circle cx="767" cy="411" r="1.1" fill="#fff" opacity="0.71"/><circle cx="177" cy="460" r="2.0" fill="#fff" opacity="0.87"/><circle cx="430" cy="283" r="1.6" fill="#fff" opacity="0.71"/><circle cx="552" cy="569" r="1.1" fill="#fff" opacity="0.62"/><circle cx="271" cy="88" r="1.2" fill="#fff" opacity="0.34"/><circle cx="911" cy="509" r="1.4" fill="#fff" opacity="0.31"/><circle cx="467" cy="421" r="1.3" fill="#fff" opacity="0.49"/><circle cx="357" cy="309" r="1.2" fill="#fff" opacity="0.86"/><circle cx="164" cy="396" r="0.9" fill="#fff" opacity="0.83"/><circle cx="683" cy="489" r="2.0" fill="#fff" opacity="0.83"/><circle cx="551" cy="284" r="1.9" fill="#fff" opacity="0.53"/><circle cx="914" cy="270" r="2.4" fill="#fff" opacity="0.39"/><circle cx="379" cy="113" r="1.8" fill="#fff" opacity="0.89"/><circle cx="284" cy="579" r="2.0" fill="#fff" opacity="0.30"/><circle cx="37" cy="265" r="2.1" fill="#fff" opacity="0.37"/><circle cx="780" cy="577" r="1.8" fill="#fff" opacity="0.33"/><circle cx="826" cy="81" r="1.2" fill="#fff" opacity="0.52"/><circle cx="150" cy="92" r="1.1" fill="#fff" opacity="0.61"/><circle cx="625" cy="369" r="1.3" fill="#fff" opacity="0.35"/><circle cx="937" cy="173" r="0.9" fill="#fff" opacity="0.37"/><circle cx="763" cy="186" r="2.4" fill="#fff" opacity="0.38"/><circle cx="699" cy="142" r="2.3" fill="#fff" opacity="0.48"/><circle cx="918" cy="302" r="1.7" fill="#fff" opacity="0.76"/><circle cx="841" cy="44" r="1.8" fill="#fff" opacity="0.65"/><circle cx="334" cy="30" r="1.0" fill="#fff" opacity="0.36"/><circle cx="877" cy="219" r="1.1" fill="#fff" opacity="0.56"/><circle cx="324" cy="227" r="1.7" fill="#fff" opacity="0.82"/><circle cx="446" cy="370" r="1.7" fill="#fff" opacity="0.43"/><circle cx="574" cy="319" r="1.5" fill="#fff" opacity="0.70"/><circle cx="978" cy="132" r="1.4" fill="#fff" opacity="0.89"/><circle cx="317" cy="40" r="1.6" fill="#fff" opacity="0.51"/><circle cx="215" cy="547" r="1.1" fill="#fff" opacity="0.49"/><circle cx="432" cy="59" r="0.9" fill="#fff" opacity="0.74"/><circle cx="483" cy="164" r="1.7" fill="#fff" opacity="0.55"/><circle cx="251" cy="322" r="0.9" fill="#fff" opacity="0.48"/><circle cx="838" cy="177" r="1.4" fill="#fff" opacity="0.52"/><circle cx="510" cy="16" r="1.7" fill="#fff" opacity="0.67"/><circle cx="437" cy="186" r="2.3" fill="#fff" opacity="0.89"/><circle cx="676" cy="440" r="2.4" fill="#fff" opacity="0.57"/><circle cx="3" cy="400" r="1.8" fill="#fff" opacity="0.45"/><polygon points="-20,1250 -20,829 0,832 20,832 40,829 60,825 80,824 100,825 120,826 140,825 160,820 180,813 200,807 220,805 240,808 260,813 280,818 300,820 320,819 340,819 360,820 380,825 400,831 420,834 440,834 460,829 480,823 500,817 520,815 540,816 560,817 580,816 600,813 620,808 640,807 660,809 680,815 700,823 720,828 740,829 760,827 780,825 800,825 820,828 840,830 860,830 880,826 900,819 920,812 940,808 960,808 980,812 1000,815 1020,816 1040,815 1040,1250" fill="#0d4a66"/><polygon points="120,900 260,640 330,700 400,610 520,900" fill="#12384a"/><polygon points="-20,1250 -20,884 0,892 20,905 40,914 60,915 80,910 100,907 120,908 140,911 160,910 180,901 200,889 220,881 240,882 260,889 280,895 300,897 320,895 340,896 360,904 380,915 400,921 420,918 440,908 460,900 480,897 500,899 520,898 540,892 560,883 580,880 600,885 620,897 640,906 660,909 680,907 700,906 720,910 740,915 760,917 780,910 800,897 820,888 840,885 860,889 880,893 900,892 920,888 940,889 960,896 980,908 1000,918 1020,918 1040,912 1040,1250" fill="#0a3552"/><polygon points="-20,1250 -20,1031 0,1027 20,1021 40,1016 60,1014 80,1016 100,1017 120,1015 140,1010 160,1000 180,992 200,987 220,987 240,994 260,1002 280,1009 300,1012 320,1012 340,1010 360,1011 380,1016 400,1023 420,1030 440,1033 460,1030 480,1022 500,1012 520,1004 540,1001 560,1001 580,1003 600,1004 620,1001 640,996 660,991 680,990 700,994 720,1004 740,1014 760,1023 780,1026 800,1025 820,1021 840,1018 860,1019 880,1021 900,1024 920,1024 940,1019 960,1009 980,999 1000,991 1020,989 1040,992 1040,1250" fill="#072640"/><polygon points="-20,1250 -20,1136 0,1133 20,1126 40,1123 60,1125 80,1125 100,1119 120,1108 140,1102 160,1105 180,1114 200,1121 220,1121 240,1120 260,1123 280,1131 300,1137 320,1135 340,1125 360,1116 380,1113 400,1115 420,1115 440,1111 460,1105 480,1107 500,1116 520,1127 540,1132 560,1130 580,1126 600,1127 620,1130 640,1130 660,1122 680,1111 700,1104 720,1106 740,1113 760,1116 780,1115 800,1114 820,1120 840,1130 860,1137 880,1136 900,1128 920,1121 940,1119 960,1120 980,1118 1000,1110 1020,1103 1040,1104 1040,1250" fill="#04162c"/><g transform="translate(500,520) rotate(-6) scale(0.9)"><ellipse cx="0" cy="0" rx="92" ry="36" transform="rotate(-10)" fill="#0c0716"/><g transform="translate(112,-26)"><circle cx="0" cy="0" r="25" fill="#0c0716"/><circle cx="-24" cy="2" r="9" fill="#0c0716"/><circle cx="24" cy="2" r="9" fill="#0c0716"/><path d="M-19,-18 L-14,-46 L-6,-28 L0,-52 L6,-28 L14,-46 L19,-18Z" fill="#ffcf5a"/><circle cx="-8" cy="-2" r="3" fill="#ffe9a8"/><circle cx="8" cy="-2" r="3" fill="#ffe9a8"/></g><path d="M70,-18 L215,-58 L250,-52" stroke="#0c0716" stroke-linecap="round" stroke-linejoin="round" fill="none" stroke-width="22"/><path d="M52,10 L150,70 L205,66" stroke="#0c0716" stroke-linecap="round" stroke-linejoin="round" fill="none" stroke-width="20"/><path d="M-70,14 L-180,64 L-262,40" stroke="#0c0716" stroke-linecap="round" stroke-linejoin="round" fill="none" stroke-width="26"/><path d="M-60,22 L-170,104 L-250,116" stroke="#0c0716" stroke-linecap="round" stroke-linejoin="round" fill="none" stroke-width="24"/><path d="M-92,6 C-190,-70 -250,-10 -330,-86 C-380,-132 -430,-96 -420,-60" stroke="#0c0716" stroke-linecap="round" stroke-linejoin="round" fill="none" stroke-width="12"/><path d="M-20,-30 L40,-30 L36,24 L-20,26Z" fill="#ff7a2e" opacity=".9"/></g><path d="M150,960 q30,-14 60,0" stroke="#d8fbff" stroke-width="4" fill="none" opacity=".5"/><path d="M420,1040 q30,-14 60,0" stroke="#d8fbff" stroke-width="4" fill="none" opacity=".5"/><path d="M760,990 q30,-14 60,0" stroke="#d8fbff" stroke-width="4" fill="none" opacity=".5"/><path d="M880,1100 q30,-14 60,0" stroke="#d8fbff" stroke-width="4" fill="none" opacity=".5"/><path d="M300,1130 q30,-14 60,0" stroke="#d8fbff" stroke-width="4" fill="none" opacity=".5"/></svg>